<?xml version="1.0" encoding="utf-8"?>
<!-- Generator: Adobe Illustrator 15.0.0, SVG Export Plug-In . SVG Version: 6.00 Build 0)  -->
<!DOCTYPE svg PUBLIC "-//W3C//DTD SVG 1.1//EN" "http://www.w3.org/Graphics/SVG/1.1/DTD/svg11.dtd">
<svg version="1.1" id="logo_svg" xmlns="http://www.w3.org/2000/svg" xmlns:xlink="http://www.w3.org/1999/xlink" x="0px" y="0px"
	 width="300px" height="64px" viewBox="0 -2.167 300 64" enable-background="new 0 -2.167 300 64" xml:space="preserve">
<title>GOLYGON</title>
<polyline id="logo0" fill="none" stroke="#000000" stroke-width="10" points="37.413,10.666 18.662,29.417 37.413,48.167 
	56.163,29.417 37.413,29.417 "/>
<polyline id="logo1" fill="none" stroke="#000000" stroke-width="10" points="56.163,29.417 74.913,10.666 93.664,29.417 
	74.913,48.167 56.163,29.417 "/>
<polyline id="logo2" fill="none" stroke="#000000" stroke-width="10" points="112.417,10.666 112.417,48.167 131.167,29.417 "/>
<line id="logo3" fill="none" stroke="#000000" stroke-width="10" x1="131.167" y1="10.666" x2="149.917" y2="29.417"/>
<polyline id="logo3_1_" fill="none" stroke="#000000" stroke-width="10" points="168.667,10.666 149.917,29.417 149.917,48.167 "/>
<polyline id="logo4" fill="none" stroke="#000000" stroke-width="10" points="187.418,10.666 168.667,29.417 187.418,48.167 
	206.168,29.417 187.418,29.417 "/>
<polyline id="logo5" fill="none" stroke="#000000" stroke-width="10" points="206.168,29.417 224.918,10.666 243.671,29.417 
	224.918,48.167 206.168,29.417 "/>
<polyline id="logo6" fill="none" stroke="#000000" stroke-width="10" points="243.671,29.417 262.422,10.666 262.422,48.167 
	281.172,29.417 "/>
</svg>
